<?xml version="1.0" standalone="no"?>
<!DOCTYPE svg PUBLIC "-//W3C//DTD SVG 20010904//EN"
 "http://www.w3.org/TR/2001/REC-SVG-20010904/DTD/svg10.dtd">
<svg version="1.0" xmlns="http://www.w3.org/2000/svg"
  
 preserveAspectRatio="xMinYMin meet">

<g transform="translate(42.000000,240.000000) scale(0.058000,-0.058000)"
 stroke="none">
<path d="M4075 4120 c-132 -20 -288 -80 -392 -151 -70 -47 -178 -154 -229
-226 -84 -116 -149 -286 -169 -440 l-7 -53 -574 0 -575 0 -23 23 c-15 15 -25
40 -29 74 -10 89 -57 157 -137 199 -33 18 -75 19 -900 19 l-865 0 -40 -22
c-47 -25 -85 -64 -111 -113 -18 -34 -19 -93 -19 -1620 l0 -1585 22 -40 c25
-47 64 -85 113 -111 34 -18 101 -19 1980 -19 1879 0 1946 1 1980 19 49 26 88
64 113 111 l22 40 3 1030 c2 800 5 1031 15 1037 6 4 28 8 47 8 100 1 306 75
417 151 70 47 178 154 229 226 61 84 119 213 146 319 30 123 30 303 -1 428
-23 96 -80 227 -131 301 -49 72 -157 182 -225 230 -189 134 -443 198 -660 165z
m340 -180 c209 -66 360 -195 460 -394 78 -156 102 -322 70 -484 -33 -161 -159
-365 -284 -458 -296 -220 -705 -201 -973 45 -204 187 -294 476 -228 737 39
154 148 325 269 422 69 55 185 112 283 138 81 21 109 24 213 20 87 -3 139 -10
190 -26z m-2521 -553 c15 -15 25 -40 29 -74 10 -88 56 -155 132 -196 40 -22
47 -22 636 -25 l597 -3 21 -90 c22 -97 79 -228 132 -306 47 -70 154 -178 226
-229 86 -62 216 -121 322 -145 l91 -22 0 -1019 0 -1019 -25 -24 -24 -25 -1911
0 -1911 0 -24 25 -25 24 0 1551 0 1551 25 24 24 25 831 0 831 0 23 -23z"/>
<path d="M4150 3892 c-20 -16 -23 -27 -21 -79 l2 -61 -64 -19 c-192 -59 -296
-220 -242 -374 49 -138 176 -217 375 -233 102 -9 154 -30 198 -80 61 -70 29
-161 -73 -207 -83 -38 -235 -22 -304 32 -52 41 -131 11 -131 -50 0 -57 72
-114 183 -146 l58 -17 -2 -60 c-2 -53 1 -64 21 -80 29 -23 71 -23 100 0 20 16
23 27 21 79 l-2 61 64 19 c192 59 296 220 242 374 -49 138 -176 217 -375 233
-102 9 -154 30 -197 80 -62 70 -30 161 72 207 83 38 235 22 304 -32 52 -41
131 -11 131 50 0 57 -72 114 -183 146 l-58 17 2 60 c2 53 -1 64 -21 80 -12 10
-35 18 -50 18 -15 0 -38 -8 -50 -18z"/>
<path d="M1373 2110 c-108 -49 -121 -201 -23 -266 55 -37 105 -40 160 -12 48
25 90 89 90 138 0 49 -42 113 -90 138 -54 27 -82 27 -137 2z"/>
<path d="M2653 2110 c-108 -49 -121 -201 -23 -266 55 -37 105 -40 160 -12 48
25 90 89 90 138 0 49 -42 113 -90 138 -54 27 -82 27 -137 2z"/>
<path d="M1880 1324 c-166 -35 -308 -111 -361 -191 -26 -39 -24 -60 10 -94 38
-38 60 -37 113 6 103 83 240 132 398 142 165 10 281 -18 420 -102 82 -49 116
-55 151 -26 37 30 32 86 -11 123 -53 45 -227 126 -305 143 -89 19 -326 18
-415 -1z"/>
</g>
</svg>
